<?xml version="1.0" encoding="UTF-8" standalone="no"?>
<!-- Created with Inkscape (http://www.inkscape.org/) -->

<svg
   width="106.7723mm"
   height="16.256018mm"
   viewBox="0 0 106.7723 16.256018"
   version="1.1"
   id="svg1"
   xmlns="http://www.w3.org/2000/svg"
   xmlns:svg="http://www.w3.org/2000/svg">
  <defs
     id="defs1" />
  <g
     id="layer1"
     transform="translate(-8.5537999,-4.3449917)">
    <path
       style="font-weight:500;font-size:22.5778px;line-height:1.25;font-family:'Kodchasan Medium';-inkscape-font-specification:'Kodchasan Medium,  Medium';fill:#000814;stroke-width:0.264583"
       d="m 48.42808,4.3449923 q 0.496712,0 0.767646,0.2935114 0.293511,0.2709336 0.293511,0.7676452 v 2.6641805 q 0,1.9642686 -0.699912,3.4995586 -0.699912,1.512713 -2.009424,2.460981 -1.286935,0.948267 -3.025425,1.174045 v 4.334938 q 0,0.496712 -0.293512,0.790223 -0.293511,0.270934 -0.790223,0.270934 -0.474134,0 -0.767645,-0.270934 -0.270934,-0.293511 -0.270934,-0.790223 V 15.204914 Q 38.945404,14.888825 37.410114,12.99229 35.874823,11.095755 35.874823,8.0703294 V 5.4061489 q 0,-0.4967116 0.270934,-0.7676452 0.293511,-0.2935114 0.767645,-0.2935114 0.496712,0 0.790223,0.2935114 0.293511,0.2709336 0.293511,0.7676452 v 2.7319139 q 0,2.5512912 1.219202,3.9736932 1.241779,1.399823 3.454403,1.399823 2.212625,0 3.454404,-1.422401 1.241779,-1.422402 1.241779,-3.9511152 V 5.4061489 q 0,-0.4967116 0.293511,-0.7676452 0.293512,-0.2935114 0.767645,-0.2935114 z m 4.086553,16.2560167 q -0.496712,0 -0.790223,-0.270934 -0.270934,-0.293511 -0.270934,-0.790223 v -8.511831 q 0,-3.138314 1.783646,-4.8993825 1.783647,-1.7836462 4.921961,-1.7836462 2.077158,0 3.58987,0.8128008 1.535291,0.790223 2.325514,2.3029357 0.812801,1.5127126 0.812801,3.5672922 v 8.511831 q 0,0.496712 -0.293512,0.790223 -0.293511,0.270934 -0.790223,0.270934 -0.474134,0 -0.767645,-0.270934 -0.293512,-0.293511 -0.293512,-0.790223 v -4.605871 h -9.166587 v 4.605871 q 0,0.496712 -0.293511,0.790223 -0.270934,0.270934 -0.767645,0.270934 z m 10.227743,-7.382941 v -2.25778 q 0,-2.3480914 -1.174045,-3.5898704 -1.174046,-1.2643569 -3.409248,-1.2643569 -2.235202,0 -3.409248,1.2417791 -1.174046,1.2192012 -1.174046,3.6124482 v 2.25778 z m 8.421522,7.157163 q -1.490134,0 -2.325513,-0.790223 -0.812801,-0.790223 -0.812801,-2.190047 V 7.4833066 q 0,-1.3546681 0.812801,-2.1223133 0.812801,-0.790223 2.25778,-0.790223 h 5.305783 q 2.393247,0 3.70276,1.12889 1.309512,1.12889 1.309512,3.1834699 0,1.1288898 -0.609601,2.0094238 -0.6096,0.880535 -1.625601,1.332091 v 0.02258 q 1.151468,0.428978 1.828802,1.354668 0.677334,0.925689 0.677334,2.122313 0,2.167469 -1.354668,3.409248 -1.332091,1.241779 -3.657604,1.241779 z m 5.350939,-8.940809 q 1.286935,0 2.009424,-0.677334 0.745068,-0.677334 0.745068,-1.8739578 0,-1.2869346 -0.745068,-1.9416909 -0.722489,-0.677334 -2.122313,-0.677334 H 71.25421 q -0.496712,0 -0.812801,0.338667 -0.293512,0.338667 -0.293512,0.9031121 v 3.9285376 z m 0,7.224896 q 1.490135,0 2.25778,-0.72249 0.767645,-0.745067 0.767645,-2.190046 0,-1.241779 -0.8128,-1.919113 -0.812801,-0.699912 -2.235203,-0.699912 h -6.344362 v 4.31236 q 0,0.541867 0.293512,0.880534 0.316089,0.338667 0.812801,0.338667 z m 15.10456,1.941691 q -2.393247,0 -4.267204,-1.016001 -1.85138,-1.016001 -2.889959,-2.844803 -1.016001,-1.85138 -1.016001,-4.267204 0,-2.415825 1.016001,-4.244627 1.038579,-1.8513797 2.889959,-2.8673807 1.873957,-1.016001 4.267204,-1.016001 2.393247,0 4.244627,1.016001 1.873957,1.016001 2.889958,2.8673807 1.038579,1.828802 1.038579,4.244627 0,2.415824 -1.038579,4.267204 -1.016001,1.828802 -2.889958,2.844803 -1.85138,1.016001 -4.244627,1.016001 z m 0,-1.761069 q 1.783646,0 3.138314,-0.745067 1.377246,-0.767645 2.144892,-2.212625 0.767645,-1.444979 0.767645,-3.409247 0,-2.009425 -0.790223,-3.4318262 Q 96.089802,7.5961956 94.689978,6.8511281 93.290154,6.1060607 91.48393,6.1060607 q -1.73849,0 -3.093158,0.7676452 -1.332091,0.7676453 -2.077158,2.2126245 -0.72249,1.4224016 -0.72249,3.3866706 0,1.964268 0.745068,3.409247 0.767645,1.44498 2.122313,2.212625 1.377246,0.745067 3.160892,0.745067 z m 23.503493,0.203201 q 0.2032,0.270933 0.2032,0.6096 0,0.51929 -0.42898,0.790223 -0.31609,0.158045 -0.51929,0.158045 -0.42898,0 -0.88053,-0.541867 l -5.05743,-6.231473 -5.05743,6.231473 q -0.42898,0.541867 -0.88053,0.541867 -0.18063,0 -0.49672,-0.158045 -0.42897,-0.270933 -0.42897,-0.790223 0,-0.338667 0.2032,-0.6096 l 5.44125,-6.728185 -5.14774,-6.3217843 q -0.22578,-0.2935114 -0.22578,-0.677334 0,-0.564445 0.4064,-0.790223 0.24836,-0.1580446 0.51929,-0.1580446 0.47413,0 0.85796,0.4967116 l 4.80907,5.9379613 4.80907,-5.9379613 q 0.4064,-0.4967116 0.85796,-0.4967116 0.27093,0 0.51929,0.1580446 0.42897,0.2935114 0.42897,0.790223 0,0.4064004 -0.24835,0.677334 l -5.12516,6.3217843 z"
       id="text1"
       aria-label="YABOX" />
    <rect
       style="fill:#f4d03f;fill-opacity:1;stroke-width:4.95955"
       id="rect2"
       width="13.588342"
       height="20.917494"
       x="25.235983"
       y="5.5909352"
       ry="0"
       transform="matrix(1,0,-0.62931617,0.77714938,0,0)" />
  </g>
</svg>
